<svg id="visual" viewBox="0 0 960 540" width="960" height="540" xmlns="http://www.w3.org/2000/svg" xmlns:xlink="http://www.w3.org/1999/xlink" version="1.1"><rect x="0" y="0" width="960" height="540" fill="#140021"></rect><path d="M0 439L107 446L213 414L320 440L427 412L533 424L640 444L747 415L853 411L960 433L960 541L853 541L747 541L640 541L533 541L427 541L320 541L213 541L107 541L0 541Z" fill="#9900ff"></path><path d="M0 462L107 466L213 434L320 469L427 472L533 459L640 444L747 452L853 463L960 440L960 541L853 541L747 541L640 541L533 541L427 541L320 541L213 541L107 541L0 541Z" fill="#8200d9"></path><path d="M0 474L107 486L213 468L320 497L427 481L533 473L640 495L747 477L853 473L960 486L960 541L853 541L747 541L640 541L533 541L427 541L320 541L213 541L107 541L0 541Z" fill="#6c00b4"></path><path d="M0 496L107 513L213 498L320 495L427 513L533 508L640 493L747 523L853 509L960 510L960 541L853 541L747 541L640 541L533 541L427 541L320 541L213 541L107 541L0 541Z" fill="#560090"></path> <path d="M0 108L120 168L240 111L360 124L480 155L600 122L720 150L840 148L960 123L960 0L840 0L720 0L600 0L480 0L360 0L240 0L120 0L0 0Z" fill="#9900ff"></path><path d="M0 126L120 76L240 75L360 92L480 94L600 105L720 134L840 97L960 113L960 0L840 0L720 0L600 0L480 0L360 0L240 0L120 0L0 0Z" fill="#8200d9"></path><path d="M0 71L120 93L240 48L360 57L480 94L600 91L720 89L840 97L960 85L960 0L840 0L720 0L600 0L480 0L360 0L240 0L120 0L0 0Z" fill="#6c00b4"></path><path d="M0 54L120 51L240 22L360 57L480 47L600 25L720 24L840 43L960 28L960 0L840 0L720 0L600 0L480 0L360 0L240 0L120 0L0 0Z" fill="#560090"></path></svg>